<svg width="60" height="60" viewBox="0 0 60 60" fill="none" xmlns="http://www.w3.org/2000/svg">
<path d="M0.857544 6.61101C0.857544 3.33273 3.51289 0.675171 6.78842 0.675171H22.1085C25.3841 0.675171 28.0394 3.33274 28.0394 6.61102V21.9192C28.0394 25.1975 25.3841 27.855 22.1085 27.855H6.78841C3.51288 27.855 0.857544 25.1975 0.857544 21.9192V6.61101Z" fill="white"/>
<path d="M32.7841 38.5396C32.7841 35.2613 35.4394 32.6038 38.715 32.6038H54.0351C57.3106 32.6038 59.966 35.2613 59.966 38.5396V53.8478C59.966 57.1261 57.3106 59.7836 54.0351 59.7836H38.715C35.4394 59.7836 32.7841 57.1261 32.7841 53.8478V38.5396Z" fill="white"/>
<path d="M0.857544 38.5396C0.857544 35.2613 3.51289 32.6038 6.78842 32.6038H22.1085C25.3841 32.6038 28.0394 35.2613 28.0394 38.5396V53.8478C28.0394 57.1261 25.3841 59.7836 22.1085 59.7836H6.78841C3.51288 59.7836 0.857544 57.1261 0.857544 53.8478V38.5396Z" fill="white"/>
<path d="M32.7841 6.61101C32.7841 3.33273 35.4395 0.675171 38.715 0.675171H54.0351C57.3107 0.675171 59.966 3.33274 59.966 6.61102V21.9192C59.966 25.1975 57.3107 27.855 54.0351 27.855H38.715C35.4395 27.855 32.7841 25.1975 32.7841 21.9192V6.61101Z" fill="white"/>
</svg>
